<svg width="15" height="15" viewBox="0 0 15 15" fill="none" xmlns="http://www.w3.org/2000/svg">
<path d="M12.6562 7.03124H3.30492L6.8857 3.62062C7.0732 3.44202 7.08047 3.1453 6.90188 2.9578C6.72352 2.77054 6.4268 2.76304 6.23906 2.94163L2.14969 6.83695C1.97273 7.01413 1.875 7.24945 1.875 7.49999C1.875 7.7503 1.97273 7.98585 2.15789 8.17077L6.2393 12.0581C6.33 12.1446 6.44625 12.1875 6.5625 12.1875C6.68625 12.1875 6.81 12.1387 6.90211 12.0419C7.0807 11.8544 7.07344 11.558 6.88594 11.3794L3.29016 7.96874H12.6562C12.915 7.96874 13.125 7.75874 13.125 7.49999C13.125 7.24124 12.915 7.03124 12.6562 7.03124Z" fill="#333333"/>
</svg>
