<svg width="13" height="14" viewBox="0 0 13 14" fill="none" xmlns="http://www.w3.org/2000/svg">
<path d="M10.3836 2.72741H9.10322C9.03936 1.98362 8.69392 1.29054 8.13531 0.785425C7.57671 0.280312 6.84566 0 6.08696 0C5.32825 0 4.59721 0.280312 4.0386 0.785425C3.47999 1.29054 3.13455 1.98362 3.07069 2.72741H1.79028C1.31547 2.72741 0.860104 2.91298 0.524361 3.2433C0.188618 3.57361 0 4.02162 0 4.48875L0 12.2387C0 12.7058 0.188618 13.1538 0.524361 13.4841C0.860104 13.8144 1.31547 14 1.79028 14H10.3836C10.8584 14 11.3138 13.8144 11.6496 13.4841C11.9853 13.1538 12.1739 12.7058 12.1739 12.2387V4.48875C12.1739 4.02162 11.9853 3.57361 11.6496 3.2433C11.3138 2.91298 10.8584 2.72741 10.3836 2.72741ZM6.08696 0.701868C6.65601 0.703604 7.20461 0.910835 7.62862 1.28422C8.05263 1.65761 8.32254 2.17117 8.38711 2.72741H3.7868C3.85137 2.17117 4.12128 1.65761 4.54529 1.28422C4.9693 0.910835 5.5179 0.703604 6.08696 0.701868ZM11.4578 12.2387C11.4578 12.5189 11.3446 12.7877 11.1432 12.9859C10.9417 13.1841 10.6685 13.2955 10.3836 13.2955H1.79028C1.50539 13.2955 1.23218 13.1841 1.03073 12.9859C0.829284 12.7877 0.716113 12.5189 0.716113 12.2387V4.48875C0.716113 4.20847 0.829284 3.93967 1.03073 3.74148C1.23218 3.54329 1.50539 3.43195 1.79028 3.43195H10.3836C10.6685 3.43195 10.9417 3.54329 11.1432 3.74148C11.3446 3.93967 11.4578 4.20847 11.4578 4.48875V12.2387Z" fill="#333333"/>
</svg>
