<svg width="14" height="14" viewBox="0 0 14 14" fill="none" xmlns="http://www.w3.org/2000/svg">
<g clip-path="url(#clip0_4122_1218)">
<path d="M13.4457 3.08906L7.08915 0.0203848C7.03279 -0.00679492 6.96717 -0.00679492 6.91084 0.0203848L0.554265 3.08906C0.48339 3.12327 0.438354 3.19505 0.438354 3.27374V10.7263C0.438354 10.805 0.48339 10.8767 0.554265 10.9109L6.91081 13.9796C6.93898 13.9932 6.96949 14 6.99998 14C7.03047 14 7.06096 13.9932 7.08915 13.9796L13.4457 10.9109C13.5166 10.8767 13.5616 10.805 13.5616 10.7263V3.27377C13.5616 3.19502 13.5165 3.1233 13.4457 3.08906ZM6.99998 0.432811L12.8848 3.27374L11.1789 4.09728C11.1681 4.08905 11.1567 4.08145 11.1442 4.07541L5.29934 1.25381L6.99998 0.432811ZM4.83619 1.48568L10.7125 4.32249L9.50893 4.90351L3.63509 2.06786L4.83619 1.48568ZM10.85 4.71153V6.85928L9.72577 7.40199V5.25425L10.85 4.71153ZM13.1514 10.5976L7.20506 13.4682V6.47113L8.62346 5.78639C8.72545 5.73714 8.76822 5.61456 8.71897 5.51254C8.66973 5.41058 8.54714 5.36776 8.44512 5.41703L6.99998 6.11471L6.43134 5.84017C6.32932 5.79087 6.20674 5.83369 6.15749 5.93569C6.10825 6.03768 6.15101 6.16029 6.253 6.20953L6.7949 6.47113V13.4682L0.848511 10.5975V3.60047L5.37664 5.78647C5.40537 5.80036 5.43575 5.80692 5.46564 5.80692C5.54187 5.80692 5.6151 5.76421 5.65046 5.69096C5.6997 5.58897 5.65694 5.46636 5.55494 5.41711L1.11514 3.27374L3.15239 2.29024L9.31277 5.26423C9.31367 5.26549 9.31468 5.26661 9.31561 5.26784V7.72875C9.31561 7.79933 9.3519 7.86492 9.41167 7.90247C9.44487 7.9233 9.48274 7.93383 9.52072 7.93383C9.55112 7.93383 9.58161 7.92708 9.60986 7.91343L11.1442 7.17272C11.2151 7.13851 11.2601 7.06676 11.2601 6.98804V4.51356L13.1514 3.6005V10.5976Z" fill="white"/>
<path d="M2.54097 9.80221L1.60814 9.35189C1.50609 9.30259 1.38354 9.34541 1.33429 9.4474C1.28504 9.54939 1.32781 9.672 1.4298 9.72125L2.36264 10.1716C2.39137 10.1855 2.42175 10.192 2.45164 10.192C2.52787 10.192 2.6011 10.1493 2.63646 10.0761C2.68573 9.97403 2.64296 9.85148 2.54097 9.80221Z" fill="white"/>
<path d="M3.39946 9.24332L1.6094 8.37915C1.50738 8.3299 1.3848 8.37267 1.33555 8.47469C1.28633 8.57668 1.3291 8.69929 1.43109 8.74854L3.22115 9.61271C3.24989 9.62658 3.28027 9.63317 3.31015 9.63317C3.38639 9.63317 3.45962 9.59045 3.49497 9.5172C3.54422 9.41515 3.50145 9.29254 3.39946 9.24332Z" fill="white"/>
</g>
<defs>
<clipPath id="clip0_4122_1218">
<rect width="14" height="14" fill="white"/>
</clipPath>
</defs>
</svg>
