<svg width="6" height="6" viewBox="0 0 6 6" fill="none" xmlns="http://www.w3.org/2000/svg">
<g clip-path="url(#clip0_261_16650)">
<path d="M3.44661 3.00097L5.90752 0.540062C6.03083 0.416734 6.03083 0.216789 5.90752 0.0934725C5.78419 -0.0298554 5.58423 -0.0298554 5.46092 0.0934725L2.99999 2.55438L0.539085 0.0934725C0.415757 -0.0298554 0.215812 -0.0298554 0.0924959 0.0934725C-0.0308203 0.2168 -0.030832 0.416745 0.0924959 0.540062L2.55341 3.00097L0.0924959 5.46188C-0.030832 5.58521 -0.030832 5.78515 0.0924959 5.90847C0.215824 6.0318 0.415769 6.03179 0.539085 5.90847L2.99999 3.44756L5.46089 5.90847C5.58422 6.0318 5.78418 6.03179 5.90749 5.90847C6.03081 5.78514 6.03081 5.5852 5.90749 5.46188L3.44661 3.00097Z" fill="#333333"/>
</g>
<defs>
<clipPath id="clip0_261_16650">
<rect width="6" height="6" fill="white"/>
</clipPath>
</defs>
</svg>
