<svg width="15" height="15" viewBox="0 0 15 15" fill="none" xmlns="http://www.w3.org/2000/svg">
<g clip-path="url(#clip0_57_27)">
<path d="M14.9353 5.45317L12.5492 2.14185C12.485 2.05279 12.3819 2 12.2721 2H2.72741C2.61763 2 2.51457 2.05276 2.45038 2.14185L0.0641985 5.45317C-0.0107206 5.55715 -0.0211355 5.69436 0.0372563 5.80841C0.0510518 5.83538 0.0683645 5.85977 0.0881358 5.88162L7.25336 13.8073C7.31811 13.8789 7.41013 13.9198 7.50667 13.9198C7.6032 13.9198 7.69523 13.8789 7.75997 13.8073L14.9172 5.87442C14.9344 5.85434 14.9499 5.83255 14.9622 5.80841C15.0207 5.69432 15.0103 5.55712 14.9353 5.45317ZM13.9913 5.31133H10.5529L12.2721 2.92556L13.9913 5.31133ZM9.42691 5.99427L7.50571 12.3939L5.57339 5.99427H9.42691ZM5.78056 5.31133L7.49977 2.92556L9.21898 5.31133H5.78056ZM8.16673 2.68294H11.6052L9.88595 5.06875L8.16673 2.68294ZM5.11359 5.06871L3.39438 2.68294H6.83284L5.11359 5.06871ZM4.86001 5.99427L6.74027 12.2214L1.1103 5.99427H4.86001ZM10.14 5.99427H13.903L8.26928 12.2256L10.14 5.99427ZM2.72741 2.92556L4.44663 5.31133H1.0082L2.72741 2.92556Z" fill="#333333"/>
</g>
<defs>
<clipPath id="clip0_57_27">
<rect width="15" height="15" fill="white"/>
</clipPath>
</defs>
</svg>
