<svg width="90" height="38" viewBox="0 0 90 38" fill="none" xmlns="http://www.w3.org/2000/svg">
<path d="M9.21603 20H1.60803V3.992H7.77603C10.864 3.992 13.224 4.8 14.856 6.416C16.296 7.856 17.016 9.784 17.016 12.2C17.016 14.52 16.328 16.368 14.952 17.744C13.48 19.248 11.568 20 9.21603 20ZM7.36803 8.888V15.104H7.80003C8.88803 15.104 9.71203 14.856 10.272 14.36C10.896 13.816 11.208 13.048 11.208 12.056C11.208 11.048 10.896 10.248 10.272 9.656C9.72803 9.144 8.96803 8.888 7.99203 8.888H7.36803Z" fill="#C3A578"/>
<path d="M25.1548 20H19.4908V3.992H26.7148C27.7388 3.992 28.6428 4.104 29.4268 4.328C30.2268 4.552 30.9548 4.992 31.6108 5.648C32.6188 6.656 33.1228 7.968 33.1228 9.584C33.1228 10.768 32.8268 11.72 32.2348 12.44C31.7068 13.096 30.9708 13.52 30.0268 13.712V13.856C30.3948 14.048 30.6748 14.296 30.8668 14.6L34.4668 20H27.7708L25.4668 15.32L25.3708 15.152C25.3228 15.04 25.2828 14.928 25.2508 14.816L25.1548 14.864V20ZM25.1548 8.384V11.12H25.8268C26.3708 11.12 26.7788 11 27.0508 10.76C27.3228 10.52 27.4588 10.192 27.4588 9.776C27.4588 9.36 27.3548 9.04 27.1468 8.816C26.8908 8.528 26.5628 8.384 26.1628 8.384H25.1548ZM47.4973 20H36.5533V3.992H47.3533V8.384H42.3613V9.872H46.8973V14.072H42.3613V15.608H47.4973V20ZM59.367 18.008H54.951L54.519 20H48.375L53.919 3.992H60.351L66.063 20H59.895L59.367 18.008ZM57.615 11.144C57.487 10.6 57.383 10 57.303 9.344H57.087C57.071 9.92 56.983 10.52 56.823 11.144L56.031 14.216H58.359L57.615 11.144ZM72.6703 20H67.0303L69.6223 3.992H75.5983L77.4703 10.544C77.6463 11.136 77.7663 11.752 77.8303 12.392H77.9743C77.9903 11.816 78.0943 11.2 78.2863 10.544L80.1583 3.992H86.0863L88.7023 20H83.1103L82.3903 12.824C82.3263 12.088 82.2943 11.56 82.2943 11.24H82.1983C82.1023 11.752 81.9983 12.2 81.8863 12.584L79.5103 20H76.1023L73.9663 12.992C73.7743 12.336 73.6703 11.752 73.6543 11.24H73.4863C73.4863 11.864 73.4783 12.28 73.4623 12.488L72.6703 20Z" fill="#1F1F1F"/>
<path d="M5.32 27.996V28.476H2.608V31.38H5.248V31.86H2.608V36H2.08V27.996H5.32ZM17.788 29.088C18.588 28.288 19.572 27.888 20.74 27.888C21.908 27.888 22.892 28.288 23.692 29.088C24.492 29.888 24.892 30.864 24.892 32.016C24.892 33.168 24.492 34.144 23.692 34.944C22.892 35.736 21.908 36.132 20.74 36.132C19.564 36.132 18.576 35.736 17.776 34.944C16.984 34.144 16.588 33.168 16.588 32.016C16.588 30.864 16.988 29.888 17.788 29.088ZM18.172 34.608C18.86 35.304 19.716 35.652 20.74 35.652C21.764 35.652 22.62 35.304 23.308 34.608C23.996 33.904 24.34 33.04 24.34 32.016C24.34 30.984 23.996 30.12 23.308 29.424C22.62 28.72 21.764 28.368 20.74 28.368C19.716 28.368 18.86 28.72 18.172 29.424C17.484 30.12 17.14 30.984 17.14 32.016C17.14 33.04 17.484 33.904 18.172 34.608ZM41.0177 36H40.4177L37.8257 32.22H37.5857V36H37.0577V27.996H38.2097C38.9377 27.996 39.5017 28.132 39.9017 28.404C40.4537 28.788 40.7297 29.36 40.7297 30.12C40.7297 30.56 40.6217 30.956 40.4057 31.308C40.1897 31.652 39.8497 31.904 39.3857 32.064C39.0817 32.168 38.7537 32.22 38.4017 32.22L41.0177 36ZM37.5857 28.476V31.74H38.3537C38.9217 31.74 39.3657 31.596 39.6857 31.308C40.0137 31.02 40.1777 30.62 40.1777 30.108C40.1777 29.436 39.9417 28.972 39.4697 28.716C39.1897 28.556 38.7817 28.476 38.2457 28.476H37.5857ZM56.9509 27.996V28.476H53.6389V31.38H56.8789V31.86H53.6389V35.52H56.9509V36H53.1109V27.996H56.9509ZM73.1493 29.028L72.7653 29.352C72.4293 28.696 71.9053 28.368 71.1933 28.368C70.7373 28.368 70.3733 28.512 70.1013 28.8C69.8373 29.088 69.7053 29.44 69.7053 29.856C69.7053 30.064 69.7333 30.244 69.7893 30.396C69.8533 30.548 69.9613 30.688 70.1133 30.816C70.2733 30.944 70.4133 31.044 70.5333 31.116C70.6533 31.18 70.8453 31.276 71.1093 31.404C71.9733 31.82 72.5053 32.1 72.7053 32.244C73.2733 32.636 73.5573 33.152 73.5573 33.792C73.5573 34.456 73.3133 35.012 72.8253 35.46C72.3373 35.908 71.7493 36.132 71.0613 36.132C70.3013 36.132 69.6813 35.852 69.2013 35.292C68.9693 35.02 68.7973 34.728 68.6853 34.416L69.1413 34.2C69.2373 34.488 69.3813 34.744 69.5733 34.968C69.9333 35.424 70.4333 35.652 71.0733 35.652C71.6173 35.652 72.0733 35.476 72.4413 35.124C72.8173 34.772 73.0053 34.332 73.0053 33.804C73.0053 33.284 72.7453 32.864 72.2253 32.544C71.9933 32.408 71.5413 32.176 70.8693 31.848C70.4293 31.632 70.1053 31.456 69.8973 31.32C69.6973 31.184 69.5333 31.008 69.4053 30.792C69.2373 30.512 69.1533 30.208 69.1533 29.88C69.1533 29.36 69.3293 28.9 69.6813 28.5C70.0333 28.092 70.5413 27.888 71.2053 27.888C71.6133 27.888 71.9893 27.988 72.3333 28.188C72.6773 28.38 72.9493 28.66 73.1493 29.028ZM88.9972 28.476H86.9212V36H86.3932V28.476H84.3172V27.996H88.9972V28.476Z" fill="#1F1F1F"/>
</svg>
