<svg width="15" height="15" viewBox="0 0 15 15" fill="none" xmlns="http://www.w3.org/2000/svg">
<g clip-path="url(#clip0_45_25)">
<path d="M14.9291 4.39342L12.5098 1.97409C12.475 1.93937 12.4305 1.91608 12.3821 1.90731L9.7208 1.42345C9.58934 1.39953 9.46339 1.48671 9.43947 1.61817C9.43686 1.63239 9.43556 1.64681 9.43556 1.66127C9.43487 1.73814 9.42797 1.81483 9.415 1.89062L7.74203 1.47256V1.39514C8.39661 1.26153 8.81894 0.622556 8.68533 -0.0320254C8.55172 -0.686607 7.91274 -1.10893 7.25816 -0.975324C6.69503 -0.860375 6.29055 -0.365077 6.29043 0.209666H6.7743C6.7743 -0.191187 7.09924 -0.516134 7.5001 -0.516134C7.90095 -0.516134 8.2259 -0.191187 8.2259 0.209666C8.2259 0.61052 7.90095 0.935467 7.5001 0.935467C7.36649 0.935467 7.25816 1.04379 7.25816 1.1774V1.47232L5.58519 1.89062C5.57222 1.81483 5.56532 1.73814 5.56463 1.66127C5.56466 1.5895 5.53284 1.52146 5.47777 1.47546C5.42301 1.42883 5.34997 1.40969 5.27939 1.42345L2.61812 1.90731C2.56973 1.91608 2.52519 1.93937 2.49038 1.97409L0.0710432 4.39342C-0.0234016 4.4879 -0.0234016 4.64104 0.0710432 4.73552L2.00651 6.67099C2.10099 6.76543 2.25413 6.76543 2.34861 6.67099L2.90336 6.11623V7.70961H1.20982C0.543751 7.70767 0.00224338 8.24609 0.000307914 8.91217C-0.000811028 9.29687 0.181667 9.65902 0.491524 9.88701C-0.0429377 10.2775 -0.15964 11.0274 0.230901 11.5618C0.303814 11.6616 0.391726 11.7495 0.491524 11.8224C-0.0449337 12.2172 -0.159792 12.9722 0.234983 13.5086C0.463006 13.8185 0.82515 14.0009 1.20982 13.9998H9.91943C9.9836 13.9998 10.0451 13.9743 10.0905 13.929L12.0259 11.9935C12.0707 11.9479 12.0955 11.8863 12.0947 11.8224H12.0968V6.11623L12.6516 6.67099C12.7461 6.76543 12.8992 6.76543 12.9937 6.67099L14.9291 4.73552C15.0236 4.64104 15.0236 4.48787 14.9291 4.39342ZM7.5001 1.91046L9.25944 2.35029C8.89478 2.97185 8.22042 3.34528 7.5001 3.32456C6.77977 3.34528 6.10541 2.97185 5.74076 2.35029L7.5001 1.91046ZM0.484024 8.91927C0.484024 8.51842 0.808971 8.19347 1.20982 8.19347H6.53236C6.93322 8.19347 7.25816 8.51842 7.25816 8.91927C7.25816 9.32013 6.93322 9.64507 6.53236 9.64507H1.20982C0.808971 9.64507 0.484024 9.3201 0.484024 8.91927ZM0.484024 10.8547C0.484024 10.4539 0.808971 10.1289 1.20982 10.1289H6.53236C6.93322 10.1289 7.25816 10.4539 7.25816 10.8547C7.25816 11.2556 6.93322 11.5805 6.53236 11.5805H1.20982C0.808971 11.5805 0.484024 11.2556 0.484024 10.8547ZM6.53236 13.516H6.04849H1.20982C0.808971 13.516 0.484024 13.1911 0.484024 12.7902C0.484024 12.3894 0.808971 12.0644 1.20982 12.0644H6.53236C6.93322 12.0644 7.25816 12.3894 7.25816 12.7902C7.25816 13.1911 6.93322 13.516 6.53236 13.516ZM10.1614 13.1739V12.0644H11.2709L10.1614 13.1739ZM12.8226 6.15784L11.3001 4.63536L10.9581 4.97745L11.613 5.63236V11.5805H9.91943C9.78582 11.5805 9.6775 11.6889 9.6775 11.8225V13.516H7.49381C7.89647 12.9943 7.80003 12.245 7.27839 11.8423C7.26965 11.8356 7.26082 11.829 7.25187 11.8225C7.78633 11.432 7.90304 10.6821 7.51253 10.1476C7.43961 10.0478 7.3517 9.95992 7.25187 9.88701C7.78836 9.49223 7.90322 8.73728 7.50841 8.20082C7.28015 7.89063 6.91746 7.70812 6.53236 7.70961H3.38723V5.63236L4.04214 4.97745L3.70005 4.63536L2.17756 6.15784L0.584184 4.56447L2.77901 2.36965L5.10157 1.94747C5.25979 2.9965 6.27494 3.80843 7.49961 3.80843C8.72428 3.80843 9.73943 2.9965 9.89766 1.94747L12.2202 2.36965L14.416 4.56447L12.8226 6.15784Z" fill="#333333"/>
<path d="M6.7743 9.67749H0.967896V10.1614H6.7743V9.67749Z" fill="#333333"/>
<path d="M6.53237 11.6128H0.967896V12.0967H6.53237V11.6128Z" fill="#333333"/>
<path d="M6.53237 13.5483H0.967896V14.0322H6.53237V13.5483Z" fill="#333333"/>
</g>
<defs>
<clipPath id="clip0_45_25">
<rect width="15" height="15" fill="white"/>
</clipPath>
</defs>
</svg>
