<svg width="20" height="20" viewBox="0 0 20 20" fill="none" xmlns="http://www.w3.org/2000/svg">
<path d="M14.2857 0C12.6261 0 11.077 0.710156 10 1.93367C8.92297 0.710156 7.37391 0 5.7143 0C2.56344 0 0 2.56344 0 5.7143C0 7.03273 0.46 8.31938 1.2952 9.33711L10 19.7289L18.7009 9.34184L18.7048 9.33711C19.54 8.31934 20 7.03273 20 5.7143C20 2.56344 17.4366 0 14.2857 0ZM17.7602 8.55793L10 17.822L2.2398 8.55793C1.58504 7.75894 1.22449 6.74922 1.22449 5.7143C1.22449 3.23863 3.23863 1.22449 5.7143 1.22449C7.24356 1.22449 8.65355 1.99215 9.48609 3.27801L10 4.0718L10.5139 3.27801C11.3464 1.99219 12.7564 1.22449 14.2857 1.22449C16.7614 1.22449 18.7755 3.23863 18.7755 5.7143C18.7755 6.74922 18.415 7.75894 17.7602 8.55793Z" fill="#333333"/>
</svg>
