<svg width="15" height="14" viewBox="0 0 15 14" fill="none" xmlns="http://www.w3.org/2000/svg">
<path d="M14.8249 5.95171L7.83863 0.121294C7.64478 -0.0404314 7.35518 -0.0404314 7.16137 0.121294L0.17509 5.95171C-0.038238 6.12976 -0.0596078 6.43881 0.127378 6.64201C0.314364 6.8451 0.638979 6.86548 0.852308 6.6874L1.39325 6.23599V13.5109C1.39325 13.781 1.62322 14 1.90695 14H5.80007H9.19993H13.093C13.3767 14 13.6067 13.781 13.6067 13.5109V6.23603L14.1477 6.68748C14.2452 6.76879 14.3659 6.80878 14.486 6.80878C14.6289 6.80878 14.771 6.7524 14.8725 6.64205C15.0597 6.43881 15.0383 6.1298 14.8249 5.95171ZM6.31377 13.0217V8.99241H8.68619V13.0218L6.31377 13.0217ZM12.5794 5.38237V13.0217H9.71371V8.50328C9.71371 8.23317 9.48365 8.01415 9.20001 8.01415H5.80016C5.51647 8.01415 5.28646 8.23317 5.28646 8.50328V13.0218H2.42069V5.38237C2.42069 5.38111 2.42052 5.37994 2.42052 5.37873L7.5 1.13954L12.5796 5.37869C12.5796 5.37998 12.5794 5.38111 12.5794 5.38237Z" fill="#333333"/>
<path d="M6.34912 4.58322C6.34912 4.85338 6.57909 5.07235 6.86282 5.07235H8.13678C8.42046 5.07235 8.65047 4.85338 8.65047 4.58322C8.65047 4.31306 8.42046 4.09409 8.13678 4.09409H6.86282C6.57913 4.09409 6.34912 4.31306 6.34912 4.58322Z" fill="#333333"/>
</svg>
