<svg width="100" height="68" viewBox="0 0 100 68" fill="none" xmlns="http://www.w3.org/2000/svg">
<g clip-path="url(#clip0_539_7813)">
<path d="M49.735 58.35C49.735 55.666 51.889 53.512 54.573 53.512C57.257 53.512 59.41 55.666 59.41 58.35C59.41 61.034 57.257 63.188 54.573 63.188C51.889 63.188 49.735 61.034 49.735 58.35ZM69.417 58.35C69.417 55.666 71.571 53.512 74.255 53.512C76.938 53.512 79.092 55.666 79.092 58.35C79.092 61.034 76.938 63.188 74.255 63.188C71.571 63.188 69.417 61.034 69.417 58.35ZM23.791 58.35C23.791 55.666 25.944 53.512 28.629 53.512C31.312 53.512 33.466 55.666 33.466 58.35C33.466 61.034 31.312 63.188 28.629 63.188C25.944 63.188 23.791 61.034 23.791 58.35ZM4.109 58.35C4.109 55.666 6.262 53.512 8.946 53.512C11.631 53.512 13.784 55.666 13.784 58.35C13.784 61.034 11.631 63.188 8.946 63.188C6.262 63.188 4.109 61.034 4.109 58.35ZM43.903 49.801H39.695V66.733H43.903V49.801ZM13.751 66.733H17.959V49.801H13.751V51.16C12.326 50.166 10.603 49.603 8.748 49.603C3.91 49.603 0 53.512 0 58.35C0 63.221 3.91 67.097 8.748 67.097C10.603 67.097 12.326 66.534 13.751 65.54V66.733ZM79.059 66.733H83.267V49.801H79.059V51.16C77.634 50.166 75.911 49.603 74.056 49.603C69.218 49.603 65.309 53.512 65.309 58.35C65.309 63.221 69.218 67.097 74.056 67.097C75.911 67.097 77.634 66.534 79.059 65.54V66.733ZM84.825 61.232C84.957 64.645 87.873 67.064 92.744 67.064C96.72 67.064 100 65.341 100 61.531C100 58.88 98.509 57.323 95.063 56.66L92.379 56.13C90.656 55.799 89.463 55.467 89.463 54.44C89.463 53.314 90.623 52.817 92.081 52.817C94.202 52.817 95.063 53.877 95.129 55.136H99.371C99.139 51.822 96.488 49.603 92.214 49.603C87.807 49.603 85.189 52.021 85.189 55.169C85.189 59.013 88.304 59.642 90.988 60.139L93.208 60.537C94.798 60.835 95.494 61.299 95.494 62.227C95.494 63.055 94.699 63.883 92.81 63.883C90.06 63.883 89.165 62.459 89.132 61.232H84.825ZM33.433 44.036V51.16C32.008 50.166 30.285 49.603 28.43 49.603C23.592 49.603 19.682 53.512 19.682 58.35C19.682 63.221 23.592 67.097 28.43 67.097C30.285 67.097 32.008 66.534 33.433 65.54V66.733H37.641V44.036H33.433ZM59.377 44.036V51.16C57.952 50.166 56.229 49.603 54.374 49.603C49.536 49.603 45.627 53.512 45.627 58.35C45.627 63.221 49.536 67.097 54.374 67.097C56.229 67.097 57.952 66.534 59.377 65.54V66.733H63.585V44.036H59.377ZM10.934 39.033L13.784 44.036H33.433L25.646 30.583L10.934 39.033ZM43.903 48.244V44.036H59.377L42.876 15.474L28.131 23.923L39.695 44.036V48.244H43.903ZM65.64 44.036H85.322L59.874 0L45.163 8.482L65.64 44.036Z" fill="black"/>
</g>
<defs>
<clipPath id="clip0_539_7813">
<rect width="100" height="68" fill="white"/>
</clipPath>
</defs>
</svg>
