<svg width="15" height="14" viewBox="0 0 15 14" fill="none" xmlns="http://www.w3.org/2000/svg">
<path d="M10.1374 0C8.95968 0 7.86044 0.50394 7.09619 1.37217C6.3319 0.50394 5.23266 0 4.05497 0C1.81906 0 0 1.81906 0 4.05497C0 4.99056 0.326425 5.90358 0.919095 6.62579L7.09619 14L13.2705 6.62914L13.2733 6.62579C13.8659 5.90356 14.1924 4.99056 14.1924 4.05497C14.1924 1.81906 12.3733 0 10.1374 0ZM12.603 6.07287L7.09619 12.6468L1.58941 6.07287C1.12477 5.50589 0.868922 4.78937 0.868922 4.05497C0.868922 2.29819 2.29819 0.868923 4.05497 0.868923C5.14016 0.868923 6.14072 1.41367 6.73151 2.32614L7.09619 2.88942L7.46086 2.32614C8.05165 1.41369 9.05221 0.868923 10.1374 0.868923C11.8942 0.868923 13.3235 2.29819 13.3235 4.05497C13.3235 4.78937 13.0676 5.50589 12.603 6.07287Z" fill="white"/>
</svg>
