<svg width="105" height="41" viewBox="0 0 105 41" fill="none" xmlns="http://www.w3.org/2000/svg">
<path d="M10.752 24H1.876V5.324H9.072C12.6747 5.324 15.428 6.26667 17.332 8.152C19.012 9.832 19.852 12.0813 19.852 14.9C19.852 17.6067 19.0493 19.7627 17.444 21.368C15.7267 23.1227 13.496 24 10.752 24ZM8.596 11.036V18.288H9.1C10.3693 18.288 11.3307 17.9987 11.984 17.42C12.712 16.7853 13.076 15.8893 13.076 14.732C13.076 13.556 12.712 12.6227 11.984 11.932C11.3493 11.3347 10.4627 11.036 9.324 11.036H8.596Z" fill="#C3A578"/>
<path d="M29.3473 24H22.7393V5.324H31.1673C32.3619 5.324 33.4166 5.45467 34.3313 5.716C35.2646 5.97733 36.1139 6.49067 36.8793 7.256C38.0553 8.432 38.6433 9.96267 38.6433 11.848C38.6433 13.2293 38.2979 14.34 37.6073 15.18C36.9913 15.9453 36.1326 16.44 35.0313 16.664V16.832C35.4606 17.056 35.7873 17.3453 36.0113 17.7L40.2113 24H32.3993L29.7113 18.54L29.5993 18.344C29.5433 18.2133 29.4966 18.0827 29.4593 17.952L29.3473 18.008V24ZM29.3473 10.448V13.64H30.1313C30.7659 13.64 31.2419 13.5 31.5593 13.22C31.8766 12.94 32.0353 12.5573 32.0353 12.072C32.0353 11.5867 31.9139 11.2133 31.6713 10.952C31.3726 10.616 30.9899 10.448 30.5233 10.448H29.3473ZM55.4135 24H42.6455V5.324H55.2455V10.448H49.4215V12.184H54.7135V17.084H49.4215V18.876H55.4135V24ZM69.2615 21.676H64.1095L63.6055 24H56.4375L62.9055 5.324H70.4095L77.0735 24H69.8775L69.2615 21.676ZM67.2175 13.668C67.0682 13.0333 66.9468 12.3333 66.8535 11.568H66.6015C66.5828 12.24 66.4802 12.94 66.2935 13.668L65.3695 17.252H68.0855L67.2175 13.668ZM84.782 24H78.202L81.226 5.324H88.198L90.382 12.968C90.5874 13.6587 90.7274 14.3773 90.802 15.124H90.97C90.9887 14.452 91.11 13.7333 91.334 12.968L93.518 5.324H100.434L103.486 24H96.962L96.122 15.628C96.0474 14.7693 96.01 14.1533 96.01 13.78H95.898C95.786 14.3773 95.6647 14.9 95.534 15.348L92.762 24H88.786L86.294 15.824C86.07 15.0587 85.9487 14.3773 85.93 13.78H85.734C85.734 14.508 85.7247 14.9933 85.706 15.236L84.782 24Z" fill="#1F1F1F"/>
<path d="M5.32 30.996V31.476H2.608V34.38H5.248V34.86H2.608V39H2.08V30.996H5.32ZM20.728 32.088C21.528 31.288 22.512 30.888 23.68 30.888C24.848 30.888 25.832 31.288 26.632 32.088C27.432 32.888 27.832 33.864 27.832 35.016C27.832 36.168 27.432 37.144 26.632 37.944C25.832 38.736 24.848 39.132 23.68 39.132C22.504 39.132 21.516 38.736 20.716 37.944C19.924 37.144 19.528 36.168 19.528 35.016C19.528 33.864 19.928 32.888 20.728 32.088ZM21.112 37.608C21.8 38.304 22.656 38.652 23.68 38.652C24.704 38.652 25.56 38.304 26.248 37.608C26.936 36.904 27.28 36.04 27.28 35.016C27.28 33.984 26.936 33.12 26.248 32.424C25.56 31.72 24.704 31.368 23.68 31.368C22.656 31.368 21.8 31.72 21.112 32.424C20.424 33.12 20.08 33.984 20.08 35.016C20.08 36.04 20.424 36.904 21.112 37.608ZM46.8977 39H46.2977L43.7057 35.22H43.4657V39H42.9377V30.996H44.0897C44.8177 30.996 45.3817 31.132 45.7817 31.404C46.3337 31.788 46.6097 32.36 46.6097 33.12C46.6097 33.56 46.5017 33.956 46.2857 34.308C46.0697 34.652 45.7297 34.904 45.2657 35.064C44.9617 35.168 44.6337 35.22 44.2817 35.22L46.8977 39ZM43.4657 31.476V34.74H44.2337C44.8017 34.74 45.2457 34.596 45.5657 34.308C45.8937 34.02 46.0577 33.62 46.0577 33.108C46.0577 32.436 45.8217 31.972 45.3497 31.716C45.0697 31.556 44.6617 31.476 44.1257 31.476H43.4657ZM65.7709 30.996V31.476H62.4589V34.38H65.6989V34.86H62.4589V38.52H65.7709V39H61.9309V30.996H65.7709ZM84.9093 32.028L84.5253 32.352C84.1893 31.696 83.6653 31.368 82.9533 31.368C82.4973 31.368 82.1333 31.512 81.8613 31.8C81.5973 32.088 81.4653 32.44 81.4653 32.856C81.4653 33.064 81.4933 33.244 81.5493 33.396C81.6133 33.548 81.7213 33.688 81.8733 33.816C82.0333 33.944 82.1733 34.044 82.2933 34.116C82.4133 34.18 82.6053 34.276 82.8693 34.404C83.7333 34.82 84.2653 35.1 84.4653 35.244C85.0333 35.636 85.3173 36.152 85.3173 36.792C85.3173 37.456 85.0733 38.012 84.5853 38.46C84.0973 38.908 83.5093 39.132 82.8213 39.132C82.0613 39.132 81.4413 38.852 80.9613 38.292C80.7293 38.02 80.5573 37.728 80.4453 37.416L80.9013 37.2C80.9973 37.488 81.1413 37.744 81.3333 37.968C81.6933 38.424 82.1933 38.652 82.8333 38.652C83.3773 38.652 83.8333 38.476 84.2013 38.124C84.5773 37.772 84.7653 37.332 84.7653 36.804C84.7653 36.284 84.5053 35.864 83.9853 35.544C83.7533 35.408 83.3013 35.176 82.6293 34.848C82.1893 34.632 81.8653 34.456 81.6573 34.32C81.4573 34.184 81.2933 34.008 81.1653 33.792C80.9973 33.512 80.9133 33.208 80.9133 32.88C80.9133 32.36 81.0893 31.9 81.4413 31.5C81.7933 31.092 82.3013 30.888 82.9653 30.888C83.3733 30.888 83.7493 30.988 84.0933 31.188C84.4373 31.38 84.7093 31.66 84.9093 32.028ZM103.697 31.476H101.621V39H101.093V31.476H99.0172V30.996H103.697V31.476Z" fill="#1F1F1F"/>
</svg>
