<svg width="14" height="14" viewBox="0 0 14 14" fill="none" xmlns="http://www.w3.org/2000/svg">
<path d="M12.8333 1.75H1.16668C0.523223 1.75 0 2.27322 0 2.91668V11.0834C0 11.7268 0.523223 12.25 1.16668 12.25H12.8334C13.4768 12.25 14 11.7268 14 11.0833V2.91668C14 2.27322 13.4768 1.75 12.8333 1.75ZM1.16668 2.33332H12.8334C12.8763 2.33332 12.9142 2.34899 12.9545 2.35785C11.9445 3.28226 8.59532 6.34618 7.42328 7.40217C7.33157 7.48478 7.18375 7.58332 7.00003 7.58332C6.8163 7.58332 6.66848 7.48478 6.57647 7.4019C5.40455 6.34607 2.05518 3.28199 1.0453 2.35791C1.08571 2.34905 1.12366 2.33332 1.16668 2.33332ZM0.583324 11.0833V2.91668C0.583324 2.85953 0.600551 2.80768 0.615973 2.75546C1.38904 3.463 3.72594 5.60085 5.24122 6.97878C3.73086 8.27616 1.39336 10.4923 0.614141 11.2354C0.600387 11.1858 0.583324 11.1372 0.583324 11.0833ZM12.8333 11.6667H1.16668C1.12008 11.6667 1.07866 11.6504 1.03515 11.64C1.84034 10.8724 4.19273 8.64355 5.67654 7.37417C5.86996 7.54964 6.04666 7.70962 6.18595 7.83513C6.42636 8.05219 6.70775 8.16668 7 8.16668C7.29225 8.16668 7.57364 8.05216 7.81375 7.83541C7.95309 7.70984 8.12993 7.54972 8.32347 7.37417C9.80736 8.64341 12.1594 10.8721 12.9648 11.64C12.9213 11.6504 12.88 11.6667 12.8333 11.6667ZM13.4167 11.0833C13.4167 11.1372 13.3996 11.1858 13.3859 11.2354C12.6064 10.4919 10.2691 8.27602 8.7588 6.97881C10.2741 5.60088 12.6107 3.46322 13.384 2.7554C13.3994 2.80763 13.4167 2.8595 13.4167 2.91665V11.0833Z" fill="white"/>
</svg>
