<svg width="172" height="30" viewBox="0 0 172 30" fill="none" xmlns="http://www.w3.org/2000/svg">
<path d="M19.1314 14.2886L21.6857 18.2486L26.8371 10.2515V27.96H31.2686V2.20288H26.7429L19.1314 14.2886Z" fill="black"/>
<path d="M6.69428 2.20288H2.21142V27.96H6.66V10.2515L16.7486 25.9715L19.32 21.96L6.69428 2.20288Z" fill="black"/>
<path d="M57.9172 19.9715L62.0229 27.96H67.3629L53.9572 2.20288H49.14L49.1314 2.21145L55.8514 15.8657H46.9286L49.2514 11.4172L46.8257 6.57431L35.5286 27.96H40.5257L44.7514 19.98L57.9172 19.9715Z" fill="black"/>
<path d="M96.96 2.20288H92.5114V14.7086L96.96 19.0629V2.20288Z" fill="black"/>
<path d="M75.5057 2.20288H70.9886V27.96H75.4371V8.7086L93.6514 27.96H96.96V24.8315L75.5057 2.20288Z" fill="black"/>
<path d="M128.014 9.35137C125.897 7.20851 122.631 5.83709 118.971 5.83709C113.126 5.83709 108.3 9.33423 107.529 13.8685H102.634C103.277 6.8228 110.666 1.63708 119.031 1.63708C124.003 1.63708 128.477 3.44566 131.486 6.35137L128.014 9.35137Z" fill="black"/>
<path d="M118.56 24.36C113.683 24.36 109.526 21.78 107.983 18.18H102.994C104.649 24.3942 111.137 28.5342 118.843 28.5342C120.634 28.5342 122.691 28.3628 124.397 27.9514C128.254 27.0171 132.471 24.5742 132.471 20.7171V13.8685H118.517L118.509 18.18H128.014V20.1342C128.014 22.2942 124.697 23.5457 122.674 23.9828C121.586 24.2228 120.18 24.36 119.057 24.36H118.56Z" fill="black"/>
<path d="M169.217 15.1028C169.217 7.42284 162.06 1.4657 153.274 1.4657C144.763 1.4657 137.289 7.14855 137.289 14.6914C137.289 21.8057 143.16 27.5057 151.063 28.4057V24.1028C145.886 23.2714 141.977 19.5086 141.977 14.9743C141.977 9.83141 147.009 5.6657 153.206 5.6657C159.411 5.6657 164.434 9.83998 164.434 14.9743C164.434 19.4743 160.586 23.2114 155.469 24.0857V28.3971C163.071 27.4971 169.217 22.0114 169.217 15.1028Z" fill="black"/>
</svg>
