<svg width="20" height="20" viewBox="0 0 20 20" fill="none" xmlns="http://www.w3.org/2000/svg">
<path d="M10.0001 0C4.48606 0 6.10352e-05 4.486 6.10352e-05 10C6.10352e-05 12.415 0.860728 14.6327 2.29139 16.3627C2.29506 16.3677 2.29539 16.374 2.29939 16.3787C3.33239 17.6243 4.62973 18.5793 6.0754 19.1963C6.09206 19.2033 6.1084 19.211 6.12506 19.218C6.24206 19.2673 6.3604 19.313 6.47906 19.3577C6.52573 19.3753 6.57239 19.3933 6.61973 19.4103C6.72206 19.447 6.82506 19.4817 6.92873 19.515C6.99506 19.5363 7.0614 19.5573 7.1284 19.5773C7.22006 19.6047 7.31206 19.631 7.40473 19.656C7.48606 19.678 7.56806 19.6983 7.65006 19.718C7.73306 19.738 7.8164 19.758 7.90006 19.7757C7.9934 19.7957 8.08773 19.8133 8.1824 19.8307C8.2584 19.8447 8.33406 19.8593 8.41073 19.8717C8.51573 19.8887 8.6214 19.902 8.7274 19.9157C8.79573 19.9243 8.86373 19.9343 8.9324 19.9417C9.0524 19.9543 9.1734 19.9633 9.29473 19.9717C9.35106 19.9757 9.40706 19.9817 9.46373 19.9847C9.64073 19.9947 9.81973 20 10.0001 20C10.1804 20 10.3594 19.9947 10.5371 19.9853C10.5937 19.9823 10.6497 19.9763 10.7061 19.9723C10.8274 19.9637 10.9484 19.955 11.0684 19.9423C11.1371 19.935 11.2051 19.925 11.2734 19.9163C11.3794 19.9027 11.4851 19.8893 11.5901 19.8723C11.6664 19.86 11.7424 19.8453 11.8184 19.8313C11.9127 19.814 12.0071 19.7963 12.1007 19.7763C12.1844 19.7583 12.2674 19.7387 12.3507 19.7187C12.4327 19.6987 12.5147 19.6783 12.5961 19.6567C12.6887 19.632 12.7807 19.6053 12.8724 19.578C12.9394 19.558 13.0057 19.537 13.0721 19.5157C13.1757 19.4823 13.2787 19.4477 13.3811 19.411C13.4281 19.394 13.4747 19.376 13.5217 19.3583C13.6407 19.3137 13.7587 19.2677 13.8757 19.2187C13.8924 19.2117 13.9087 19.204 13.9254 19.197C15.3707 18.58 16.6684 17.625 17.7014 16.3793C17.7054 16.3747 17.7057 16.368 17.7094 16.3633C19.1394 14.6327 20.0001 12.415 20.0001 10C20.0001 4.486 15.5141 0 10.0001 0ZM14.0524 18.4067C14.0474 18.409 14.0427 18.4117 14.0377 18.414C13.9187 18.4713 13.7977 18.5253 13.6757 18.578C13.6481 18.5897 13.6207 18.6017 13.5931 18.6133C13.4864 18.658 13.3784 18.7003 13.2697 18.741C13.2244 18.758 13.1791 18.7747 13.1334 18.7907C13.0371 18.825 12.9404 18.858 12.8427 18.8893C12.7821 18.9087 12.7211 18.927 12.6601 18.945C12.5734 18.971 12.4864 18.996 12.3984 19.0193C12.3244 19.039 12.2497 19.057 12.1751 19.0747C12.0967 19.0933 12.0187 19.1123 11.9397 19.129C11.8534 19.1473 11.7664 19.163 11.6797 19.1787C11.6094 19.1917 11.5394 19.2053 11.4684 19.2167C11.3707 19.232 11.2721 19.2443 11.1737 19.2567C11.1114 19.2647 11.0494 19.274 10.9864 19.2807C10.8741 19.2927 10.7607 19.3003 10.6477 19.3083C10.5974 19.3117 10.5474 19.3173 10.4964 19.32C10.3314 19.3287 10.1661 19.3333 10.0001 19.3333C9.83406 19.3333 9.66873 19.3287 9.50406 19.32C9.45339 19.3173 9.4034 19.312 9.35273 19.3083C9.2394 19.3007 9.1264 19.2927 9.01406 19.2807C8.95106 19.274 8.88906 19.2647 8.82673 19.2567C8.7284 19.2443 8.62973 19.232 8.53206 19.2167C8.46106 19.2053 8.39106 19.1917 8.32073 19.1787C8.23373 19.163 8.14673 19.147 8.06073 19.129C7.98173 19.1123 7.9034 19.0933 7.8254 19.0747C7.75073 19.0567 7.67606 19.039 7.60206 19.0193C7.5144 18.996 7.42706 18.9707 7.3404 18.945C7.2794 18.927 7.2184 18.9087 7.15773 18.8893C7.06006 18.858 6.96306 18.825 6.86706 18.7907C6.82139 18.7743 6.77606 18.7577 6.73073 18.741C6.62206 18.7003 6.51406 18.658 6.4074 18.6133C6.37973 18.602 6.35273 18.59 6.32506 18.5783C6.20306 18.526 6.08206 18.4717 5.96273 18.4143C5.95773 18.412 5.95306 18.4097 5.94806 18.407C4.78506 17.8443 3.75773 17.0457 2.92406 16.0757C3.56839 13.703 5.39239 11.7903 7.73906 11.0293C7.7854 11.0577 7.83373 11.083 7.88139 11.1097C7.9094 11.1253 7.93706 11.142 7.9654 11.157C8.06473 11.2097 8.1654 11.259 8.2684 11.3033C8.3474 11.338 8.42906 11.3673 8.5104 11.3973C8.5264 11.403 8.5424 11.4093 8.5584 11.415C9.0104 11.575 9.49406 11.6667 10.0001 11.6667C10.5061 11.6667 10.9897 11.575 11.4414 11.415C11.4574 11.4093 11.4734 11.403 11.4894 11.3973C11.5707 11.3673 11.6524 11.338 11.7314 11.3033C11.8344 11.259 11.9351 11.2097 12.0344 11.157C12.0627 11.1417 12.0904 11.1253 12.1184 11.1097C12.1661 11.083 12.2147 11.0577 12.2614 11.029C14.6081 11.7903 16.4317 13.703 17.0764 16.0753C16.2427 17.045 15.2154 17.8437 14.0524 18.4067ZM6.3334 7.33333C6.3334 5.31167 7.9784 3.66667 10.0001 3.66667C12.0217 3.66667 13.6667 5.31167 13.6667 7.33333C13.6667 8.61933 12.9997 9.751 11.9947 10.4057C11.8634 10.491 11.7267 10.5673 11.5864 10.634C11.5697 10.642 11.5534 10.6503 11.5367 10.658C10.5714 11.097 9.42873 11.097 8.4634 10.658C8.44673 10.6503 8.43006 10.642 8.41373 10.634C8.27306 10.5673 8.13673 10.491 8.0054 10.4057C7.0004 9.751 6.3334 8.61933 6.3334 7.33333ZM17.5764 15.441C16.8207 13.2097 15.0967 11.4063 12.8941 10.5497C13.7751 9.756 14.3334 8.61 14.3334 7.33333C14.3334 4.944 12.3894 3 10.0001 3C7.61073 3 5.66673 4.944 5.66673 7.33333C5.66673 8.61 6.22506 9.756 7.1064 10.5497C4.90373 11.4067 3.17973 13.2097 2.42406 15.441C1.31973 13.908 0.666728 12.0293 0.666728 10C0.666728 4.85367 4.85373 0.666667 10.0001 0.666667C15.1464 0.666667 19.3334 4.85367 19.3334 10C19.3334 12.0293 18.6804 13.908 17.5764 15.441Z" fill="#333333"/>
</svg>
