<svg width="15" height="15" viewBox="0 0 15 15" fill="none" xmlns="http://www.w3.org/2000/svg">
<g clip-path="url(#clip0_549_2828)">
<path d="M10.7608 0.744199C9.77479 0.267422 8.6686 0 7.49995 0C6.3313 0 5.22511 0.267422 4.23909 0.744199L3.58691 7.5L4.23909 14.2558C5.22511 14.7326 6.3313 15 7.49995 15C8.6686 15 9.77479 14.7326 10.7608 14.2558L11.413 7.5L10.7608 0.744199Z" fill="#FFDA44"/>
<path d="M4.23914 0.744629C1.73045 1.95772 0 4.52674 0 7.50017C0 10.4736 1.73045 13.0426 4.23914 14.2557V0.744629Z" fill="#0052B4"/>
<path d="M10.7609 0.744629V14.2557C13.2696 13.0426 15 10.4736 15 7.50017C15 4.52674 13.2696 1.95772 10.7609 0.744629Z" fill="#D80027"/>
<path d="M10.1087 5.90091H8.31525C8.31525 5.45067 7.95027 5.08569 7.50004 5.08569C7.0498 5.08569 6.68482 5.45067 6.68482 5.90091H4.89136C4.89136 6.3442 5.27752 6.70352 5.72075 6.70352H5.69403C5.69403 7.14684 6.05339 7.50622 6.49671 7.50622C6.49671 7.89871 6.7786 8.22485 7.15091 8.29457L6.51839 9.72256C6.82146 9.84575 7.1527 9.91422 7.50004 9.91422C7.84735 9.91422 8.17861 9.84575 8.48166 9.72256L7.84917 8.29457C8.22147 8.22485 8.50337 7.89871 8.50337 7.50622C8.94669 7.50622 9.30604 7.14684 9.30604 6.70352H9.2793C9.72259 6.70352 10.1087 6.34417 10.1087 5.90091Z" fill="#FF9811"/>
<path d="M7.49996 7.01099L6.44019 7.50012V8.47837L7.49996 9.13055L8.55974 8.47837V7.50012L7.49996 7.01099Z" fill="#0052B4"/>
<path d="M8.55974 6.52173H6.44019V7.49998H8.55974V6.52173Z" fill="#D80027"/>
</g>
<defs>
<clipPath id="clip0_549_2828">
<rect width="15" height="15" fill="white"/>
</clipPath>
</defs>
</svg>
