<svg width="15" height="15" viewBox="0 0 15 15" fill="none" xmlns="http://www.w3.org/2000/svg">
<g clip-path="url(#clip0_139_3)">
<path d="M14.8998 8.88477C14.8903 8.37211 14.6386 7.88959 14.2212 7.58935C14.1228 7.51851 13.9855 7.54089 13.9147 7.63936C13.8438 7.73783 13.8662 7.87508 13.9647 7.94595C14.2512 8.15214 14.431 8.47585 14.4575 8.82489C14.1939 8.92207 13.9691 9.10934 13.8254 9.34998C12.0905 9.90568 10.4638 10.0805 8.98287 9.87108L7.72733 9.599C7.69545 9.59019 7.66349 9.58178 7.6317 9.57272C7.547 9.54861 7.46814 9.5252 7.39346 9.50229L6.25844 9.11862C6.1542 9.08496 6.04223 9.05039 5.91848 9.01456C5.9077 9.01142 5.89677 9.00847 5.88596 9.00536L4.64878 8.72015C4.43465 8.68383 4.21903 8.65371 4.0061 8.63118C3.95688 8.62599 3.90713 8.62148 3.85744 8.61697V8.51004C3.85744 7.88311 3.34724 7.37308 2.72011 7.37308H1.31503V7.34115C1.31503 6.96864 1.36463 6.59744 1.46248 6.23794L1.71022 5.32783C1.7224 5.28307 1.75689 5.269 1.77631 5.26458C1.79582 5.26018 1.833 5.25799 1.86335 5.2932L2.04581 5.50467C2.12509 5.59654 2.26375 5.60668 2.35563 5.52746C2.44747 5.44818 2.45764 5.30949 2.37839 5.21765L2.19593 5.00618C2.06805 4.85803 1.87015 4.79284 1.67913 4.8362C1.48826 4.87953 1.33779 5.0237 1.28638 5.21252L1.03864 6.12263C0.930538 6.51975 0.875753 6.92973 0.875753 7.34123V8.77585C0.79255 8.82562 0.723175 8.89781 0.677413 8.98585L0.0313584 10.2289C0.0313291 10.229 0.0312998 10.229 0.0312705 10.2291L0.0295713 10.2324C0.0289854 10.2335 0.0286045 10.2347 0.0280186 10.2358C0.0250889 10.2417 0.0224229 10.2477 0.0200205 10.2538C0.0192002 10.2559 0.0184678 10.258 0.0177061 10.2601C0.0156846 10.2658 0.0138975 10.2716 0.0123448 10.2775C0.0117295 10.2798 0.0111143 10.282 0.0105869 10.2843C0.00920999 10.2903 0.008126 10.2964 0.00724709 10.3026C0.00695413 10.3047 0.00654397 10.3068 0.00630959 10.3089C-0.0747256 11.0254 0.639386 11.6381 1.30967 11.6381H4.62282C4.73278 11.6381 4.83989 11.5931 4.91667 11.5146C4.98271 11.4471 5.02179 11.3612 5.02882 11.2694L5.36383 11.3277C5.48348 11.3485 5.59709 11.2685 5.61792 11.149C5.63875 11.0295 5.55874 10.9158 5.43921 10.895L5.07496 10.8315C4.9542 10.8081 4.83098 10.8399 4.73647 10.9189C4.65168 10.9897 4.6003 11.09 4.5918 11.1988H3.83858C3.73375 10.5838 3.19721 10.114 2.55262 10.114H0.586212L1.06724 9.18841C1.07682 9.16998 1.09246 9.1558 1.11095 9.14768C1.13049 9.14631 1.14927 9.14244 1.16702 9.13629C1.82784 9.03776 2.49933 8.99689 3.16361 9.01541C3.43229 9.02291 3.70024 9.04063 3.95998 9.06806C4.19773 9.09319 4.43928 9.12776 4.6762 9.17051C5.05806 9.2424 5.4349 9.33187 5.79631 9.43652C6.37431 9.60384 6.93256 9.83057 7.51147 9.99527C7.82453 10.0843 8.1417 10.1623 8.45638 10.2275C8.457 10.2276 8.45761 10.2278 8.45823 10.2279C8.45864 10.228 8.45902 10.2281 8.45943 10.2282C10.0161 10.5345 11.7277 10.421 13.5537 9.89209L13.1657 10.6799L11.5813 11.1495C11.4712 11.1822 11.3571 11.1987 11.2423 11.1987H10.9052L8.48351 10.4206C8.1623 10.3174 7.81343 10.4002 7.57299 10.6368L7.02898 11.1718L6.35333 11.0542C6.23392 11.0332 6.12007 11.1133 6.09924 11.2329C6.07841 11.3524 6.15842 11.4661 6.27795 11.4869L7.06484 11.624C7.11851 11.6333 7.17332 11.638 7.22773 11.638H10.87C10.8705 11.6381 10.871 11.6381 10.8715 11.638H11.2423C11.3994 11.638 11.5555 11.6154 11.7062 11.5707L13.3806 11.0744C13.382 11.074 13.3834 11.0736 13.3847 11.0732L14.1302 10.8522C14.6424 10.7005 15 10.2216 15 9.6876V9.12911C15 9.03721 14.963 8.94964 14.8998 8.88477ZM2.55265 10.5533C2.95399 10.5533 3.29231 10.8278 3.38981 11.1987H1.30964C0.908302 11.1987 0.569982 10.9243 0.472482 10.5533H2.55265ZM3.41817 8.58594C2.71653 8.55088 2.01153 8.58088 1.31503 8.67181V7.81239H2.72017C3.10507 7.81239 3.41817 8.12537 3.41817 8.51001V8.58594ZM7.62813 11.1988L7.88105 10.95C8.00465 10.8285 8.18401 10.7859 8.34915 10.8389L9.46906 11.1988H7.62813ZM14.5607 9.68763C14.5607 10.0285 14.3323 10.3342 14.0054 10.4311L13.7391 10.51L14.1726 9.62962C14.2541 9.46418 14.3931 9.33146 14.5607 9.25658V9.68763Z" fill="#333333"/>
<path d="M13.1594 7.27445L12.0548 7.16643C11.6135 7.12328 11.1742 7.05519 10.7395 6.96343C10.0362 6.59075 9.35158 6.16982 8.70157 5.71135L8.72096 5.68827C8.79901 5.5954 8.78697 5.45685 8.69407 5.37878C8.60123 5.30073 8.46265 5.31277 8.38461 5.40564L8.34438 5.45351C8.20279 5.34851 8.0624 5.24158 7.92359 5.13248L7.94841 5.10295C8.02645 5.01008 8.01441 4.87153 7.92151 4.79346C7.82864 4.71541 7.69012 4.72748 7.61205 4.82032L7.58138 4.85686C7.43808 4.73873 7.29635 4.61862 7.15657 4.49627L7.1844 4.46314C7.26245 4.37027 7.25041 4.23172 7.15751 4.15365C7.06467 4.0756 6.92609 4.08767 6.84805 4.18051L6.82921 4.20293C6.58434 3.9784 6.3454 3.74766 6.11328 3.51103C6.10868 3.50631 6.10388 3.50183 6.09887 3.49758C5.86481 3.29836 5.51653 3.31825 5.30609 3.5429C5.17271 3.6852 5.04682 3.87908 4.93183 4.11911C4.6705 4.66458 4.66285 5.16204 4.67932 5.3994C4.19492 5.71557 3.58283 5.7974 3.02106 5.60044C2.90651 5.5603 2.78123 5.62059 2.7411 5.73502C2.7009 5.84952 2.76117 5.97488 2.87566 6.01501C3.7468 6.32049 4.71696 6.08231 5.34729 5.40825C5.48416 5.26188 5.7074 5.23095 5.87894 5.33401L5.64482 5.61265C5.56678 5.70552 5.57882 5.84407 5.67172 5.92214C5.76251 5.99843 5.90524 5.9856 5.98118 5.89528L6.25865 5.56505L6.68908 5.82707C6.70613 5.83745 6.72336 5.84755 6.74041 5.85784L6.59105 6.03561C6.51301 6.12851 6.52505 6.26702 6.61795 6.3451C6.70874 6.42139 6.85147 6.40856 6.92741 6.31823L7.12663 6.08114C7.28433 6.16853 7.444 6.25255 7.60549 6.33309L7.50646 6.45095C7.42842 6.54382 7.44046 6.68236 7.53336 6.76044C7.62415 6.83673 7.76688 6.82389 7.84282 6.73357L8.01541 6.52814C8.84375 6.90466 9.71371 7.19245 10.6033 7.38369C10.6165 7.38771 10.6298 7.39067 10.6432 7.39213C11.0955 7.48784 11.5528 7.5588 12.0121 7.60371L13.1167 7.71173C13.124 7.71243 13.1312 7.71278 13.1384 7.71278C13.25 7.71278 13.3456 7.62797 13.3567 7.51447C13.3684 7.39365 13.2802 7.28625 13.1594 7.27445ZM6.16487 4.99367L6.10953 4.95998C5.7998 4.77146 5.40626 4.79996 5.12662 5.0174C5.14845 4.81789 5.20315 4.56957 5.32801 4.30895C5.4236 4.10947 5.52406 3.95282 5.62666 3.84331C5.67485 3.79192 5.75325 3.78559 5.80827 3.82743C6.04757 4.07103 6.29387 4.30863 6.54635 4.53966L6.16487 4.99367ZM7.02667 5.51717C6.99019 5.49552 6.95378 5.47385 6.91757 5.45184L6.54456 5.22476L6.87394 4.83272C7.01378 4.95497 7.15555 5.07506 7.29881 5.19321L7.02667 5.51717ZM7.89655 5.98662C7.7341 5.90735 7.57344 5.8245 7.41482 5.7381L7.64088 5.46901C7.77966 5.5782 7.91981 5.68537 8.06126 5.79051L7.89655 5.98662ZM8.30911 6.17855L8.418 6.04894C8.62551 6.19592 8.83651 6.33906 9.05058 6.47819C8.80015 6.38644 8.55286 6.28642 8.30911 6.17855Z" fill="#333333"/>
</g>
<defs>
<clipPath id="clip0_139_3">
<rect width="15" height="15" fill="white"/>
</clipPath>
</defs>
</svg>
