<svg width="15" height="15" viewBox="0 0 15 15" fill="none" xmlns="http://www.w3.org/2000/svg">
<g clip-path="url(#clip0_4176_1204)">
<path d="M7.5 15C11.6421 15 15 11.6421 15 7.5C15 3.35786 11.6421 0 7.5 0C3.35786 0 0 3.35786 0 7.5C0 11.6421 3.35786 15 7.5 15Z" fill="#F0F0F0"/>
<path d="M14.5335 10.1087C14.835 9.29617 15 8.41738 15 7.49998C15 6.58258 14.835 5.70379 14.5335 4.8913H0.466494C0.165029 5.70379 0 6.58258 0 7.49998C0 8.41738 0.165029 9.29617 0.466494 10.1087L7.5 10.7608L14.5335 10.1087Z" fill="#0052B4"/>
<path d="M7.50006 15C10.7248 15 13.4739 12.9647 14.5336 10.1087H0.466553C1.52625 12.9647 4.27532 15 7.50006 15Z" fill="#D80027"/>
</g>
<defs>
<clipPath id="clip0_4176_1204">
<rect width="15" height="15" fill="white"/>
</clipPath>
</defs>
</svg>
