<svg width="18" height="20" viewBox="0 0 18 20" fill="none" xmlns="http://www.w3.org/2000/svg">
<path d="M14.8338 3.8963H13.0046C12.9134 2.83374 12.4199 1.84363 11.6219 1.12204C10.8239 0.400446 9.77952 0 8.69565 0C7.61179 0 6.56744 0.400446 5.76943 1.12204C4.97141 1.84363 4.47793 2.83374 4.3867 3.8963H2.55755C1.87924 3.8963 1.22872 4.1614 0.749088 4.63328C0.269455 5.10516 0 5.74517 0 6.4125L0 17.4838C0 18.1511 0.269455 18.7911 0.749088 19.263C1.22872 19.7349 1.87924 20 2.55755 20H14.8338C15.5121 20 16.1626 19.7349 16.6422 19.263C17.1219 18.7911 17.3913 18.1511 17.3913 17.4838V6.4125C17.3913 5.74517 17.1219 5.10516 16.6422 4.63328C16.1626 4.1614 15.5121 3.8963 14.8338 3.8963ZM8.69565 1.00267C9.50859 1.00515 10.2923 1.30119 10.898 1.83461C11.5038 2.36802 11.8893 3.10167 11.9816 3.8963H5.40972C5.50196 3.10167 5.88755 2.36802 6.49328 1.83461C7.09901 1.30119 7.88272 1.00515 8.69565 1.00267ZM16.3683 17.4838C16.3683 17.8842 16.2066 18.2682 15.9188 18.5513C15.6311 18.8345 15.2407 18.9935 14.8338 18.9935H2.55755C2.15056 18.9935 1.76025 18.8345 1.47247 18.5513C1.18469 18.2682 1.02302 17.8842 1.02302 17.4838V6.4125C1.02302 6.0121 1.18469 5.6281 1.47247 5.34497C1.76025 5.06184 2.15056 4.90278 2.55755 4.90278H14.8338C15.2407 4.90278 15.6311 5.06184 15.9188 5.34497C16.2066 5.6281 16.3683 6.0121 16.3683 6.4125V17.4838Z" fill="#333333"/>
</svg>
