<svg width="15" height="15" viewBox="0 0 15 15" fill="none" xmlns="http://www.w3.org/2000/svg">
<path d="M7.3626 3.65296L5.72197 2.01234C5.53916 1.82929 5.24197 1.82929 5.05916 2.01234L3.41854 3.65296C3.23549 3.83601 3.23549 4.13273 3.41854 4.31578C3.60135 4.49882 3.89853 4.49882 4.08135 4.31578L4.92182 3.47531V12.6562C4.92182 12.915 5.13182 13.125 5.39057 13.125C5.64932 13.125 5.85932 12.915 5.85932 12.6562V3.47531L6.69978 4.31578C6.79119 4.40742 6.91119 4.45312 7.03119 4.45312C7.15119 4.45312 7.27119 4.40742 7.3626 4.31578C7.54564 4.13273 7.54564 3.83601 7.3626 3.65296Z" fill="black"/>
<path d="M11.5813 10.6842C11.3983 10.5012 11.1016 10.5012 10.9185 10.6842L10.0781 11.5247V2.34375C10.0781 2.085 9.86806 1.875 9.60931 1.875C9.35056 1.875 9.14056 2.085 9.14056 2.34375V11.5247L8.3001 10.6842C8.11705 10.5012 7.8201 10.5012 7.63728 10.6842C7.45424 10.8673 7.45424 11.164 7.63728 11.347L9.2779 12.9877C9.36954 13.0793 9.48931 13.125 9.60931 13.125C9.72931 13.125 9.84907 13.0793 9.94071 12.9877L11.5813 11.347C11.7644 11.164 11.7644 10.8673 11.5813 10.6842Z" fill="black"/>
</svg>
