<svg width="15" height="15" viewBox="0 0 15 15" fill="none" xmlns="http://www.w3.org/2000/svg">
<path d="M2.34375 7.96876L11.6951 7.96876L8.1143 11.3794C7.9268 11.558 7.91953 11.8547 8.09812 12.0422C8.27648 12.2295 8.5732 12.237 8.76094 12.0584L12.8503 8.16306C13.0273 7.98587 13.125 7.75056 13.125 7.50001C13.125 7.2497 13.0273 7.01415 12.8421 6.82923L8.7607 2.94188C8.67 2.8554 8.55375 2.81251 8.4375 2.81251C8.31375 2.81251 8.19 2.86126 8.09789 2.95806C7.9193 3.14556 7.92656 3.44204 8.11406 3.62063L11.7098 7.03126L2.34375 7.03126C2.085 7.03126 1.875 7.24126 1.875 7.50001C1.875 7.75876 2.085 7.96876 2.34375 7.96876Z" fill="#333333"/>
</svg>
