<svg width="30" height="30" viewBox="0 0 30 30" fill="none" xmlns="http://www.w3.org/2000/svg">
<g clip-path="url(#clip0_414_1435)">
<path d="M10.6337 0.742676H19.3812C27.3713 0.742676 29.2575 2.64367 29.2575 10.6338V19.3813C29.2575 27.3714 27.3565 29.2575 19.3664 29.2575H10.6189C2.62877 29.2575 0.74263 27.3565 0.74263 19.3664V10.6189C0.74263 2.64367 2.64362 0.742676 10.6337 0.742676Z" fill="#5181B8"/>
<path d="M0 0H30V30H0V0Z" fill="#5181B8"/>
<path fill-rule="evenodd" clip-rule="evenodd" d="M24.0891 10.5594C24.2228 10.1139 24.0891 9.802 23.4654 9.802H21.3862C20.8515 9.802 20.6139 10.0842 20.4802 10.3961C20.4802 10.3961 19.4258 12.9802 17.9258 14.6436C17.4357 15.1337 17.2278 15.2822 16.9604 15.2822C16.8268 15.2822 16.6337 15.1337 16.6337 14.6881V10.5594C16.6337 10.0248 16.4852 9.802 16.0396 9.802H12.7723C12.4456 9.802 12.2377 10.0545 12.2377 10.2772C12.2377 10.7822 12.9802 10.901 13.0693 12.297V15.3564C13.0693 16.0247 12.9505 16.1436 12.6832 16.1436C11.9852 16.1436 10.2624 13.5594 9.2525 10.5891C9.04458 10.0396 8.85151 9.802 8.31686 9.802H6.23765C5.64359 9.802 5.52478 10.0842 5.52478 10.3961C5.52478 10.9456 6.2228 13.6782 8.80696 17.2871C10.5297 19.7524 12.9505 21.0891 15.1485 21.0891C16.4703 21.0891 16.6337 20.792 16.6337 20.2871V18.4158C16.6337 17.8218 16.7525 17.7029 17.1832 17.7029C17.4951 17.7029 18.0149 17.8515 19.2476 19.0396C20.6584 20.4505 20.8961 21.0891 21.6832 21.0891H23.7624C24.3565 21.0891 24.6535 20.792 24.4753 20.2128C24.2822 19.6336 23.6139 18.7871 22.7228 17.7772C22.2327 17.198 21.505 16.5891 21.2971 16.2772C20.9852 15.8762 21.0743 15.698 21.2971 15.3564C21.2971 15.3416 23.8367 11.7772 24.0891 10.5594Z" fill="white"/>
</g>
<defs>
<clipPath id="clip0_414_1435">
<rect width="30" height="30" rx="5" fill="white"/>
</clipPath>
</defs>
</svg>
