<svg width="117" height="49" viewBox="0 0 117 49" fill="none" xmlns="http://www.w3.org/2000/svg">
<path d="M110.518 47.5501L93.2584 0.0314531L93.2467 0H92.906L89.352 9.76491L82.8816 27.5422L82.8665 27.5281C80.624 25.5494 77.4601 24.3124 73.4756 23.8518L72.2604 23.7264L73.466 23.5718C80.0368 22.391 84.4538 18.2411 84.4538 13.2412C84.4538 6.38487 78.0051 1.59922 68.7678 1.59922H49.5481V1.94637H55.1328V37.3742L41.5696 0.0313366L41.5574 0H41.2168L37.6626 9.76491L23.9544 47.4278L23.8701 47.4376C23.6358 47.4665 23.4041 47.4894 23.1748 47.5068C22.83 47.5338 22.4872 47.55 22.1433 47.55H8.29231L34.6212 1.94625L34.8169 1.60353H2.61561V15.7108H2.95729C3.01786 8.83938 7.01962 1.94625 15.8612 1.94625H26.5279L0 47.8917H35.7381V34.3759H35.3965C35.3499 40.3651 31.9548 46.0537 24.5719 47.3381L24.3372 47.3782L29.9599 31.9236H45.7106L51.3861 47.5501H45.7875V47.8918H67.7621V47.5501H62.1395V23.9783H68.6272C75.2294 23.9783 79.016 26.9279 79.016 32.0683V36.2496C79.016 36.7103 79.0474 37.3839 79.082 37.9473V37.9678L75.5949 47.5479H71.0394V47.8896H80.4692V47.5479H75.9626L79.1382 38.8242C79.1448 38.9086 79.148 38.9593 79.148 38.9593L79.2356 39.7454L79.32 40.2655C79.8498 43.4823 81.0802 45.847 82.9757 47.2937L83.2482 47.4916C84.6884 48.4929 86.478 49 88.5702 49C91.3415 49 93.1894 48.3091 94.7151 46.6829L94.515 46.4947C93.1093 47.7922 91.9297 48.3178 90.4517 48.3178C87.9333 48.3178 86.6153 45.2631 86.6153 42.2507V36.3923C86.6287 34.9387 86.4011 33.4929 85.9416 32.1138L85.879 31.9321V31.9256H97.3996L103.075 47.5522H97.4765V47.8939H116.493V47.5522L110.518 47.5501ZM30.0852 31.5818L37.8444 10.2646L45.5863 31.5818H30.0852ZM62.1429 23.6355V1.94625H67.095C73.7102 1.94625 77.2027 5.87882 77.2027 13.3148C77.2027 21.2232 75.198 23.6355 68.6272 23.6355H62.1429ZM85.7448 31.5818L85.7112 31.4975C85.1992 30.2506 84.4538 29.1129 83.5151 28.1455L83.1908 27.8211L83.1562 27.7887L89.5292 10.2646L97.271 31.5818H85.7448Z" fill="black"/>
</svg>
